<?xml version="1.0" standalone="no"?>
<!DOCTYPE svg PUBLIC "-//W3C//DTD SVG 1.1//EN" "http://www.w3.org/Graphics/SVG/1.1/DTD/svg11.dtd">
<svg width="1436" height="434" version="1.1" xmlns="http://www.w3.org/2000/svg">
<rect width="1436" height="434" x="0" y="0" style="fill:rgb(238,238,238);stroke:none"/>
<rect width="1436" height="418" x="0" y="16" style="fill:rgb(255,255,255);stroke:none"/>
<rect width="1436" height="414" x="0" y="18" style="fill:rgb(238,238,238);stroke:none"/>
<rect width="1436" height="25" x="0" y="405" style="fill:rgb(238,238,238);stroke:none"/>
<rect width="1432" height="25" x="2" y="405" style="fill:rgb(255,255,255);stroke:none"/>
<line x1="0" y1="408" x2="1436" y2="408" stroke="rgb(64,64,64)" stroke-width="1"/>
<text x="61" y="428" fill="rgb(64,64,64)" font-family="sans-serif" font-size="13">23,350,000</text>
<line x1="97" y1="408" x2="97" y2="414" stroke="rgb(64,64,64)" stroke-width="1"/>
<text x="190" y="428" fill="rgb(64,64,64)" font-family="sans-serif" font-size="13">23,400,000</text>
<line x1="226" y1="408" x2="226" y2="414" stroke="rgb(64,64,64)" stroke-width="1"/>
<text x="320" y="428" fill="rgb(64,64,64)" font-family="sans-serif" font-size="13">23,450,000</text>
<line x1="356" y1="408" x2="356" y2="414" stroke="rgb(64,64,64)" stroke-width="1"/>
<text x="450" y="428" fill="rgb(64,64,64)" font-family="sans-serif" font-size="13">23,500,000</text>
<line x1="486" y1="408" x2="486" y2="414" stroke="rgb(64,64,64)" stroke-width="1"/>
<text x="580" y="428" fill="rgb(64,64,64)" font-family="sans-serif" font-size="13">23,550,000</text>
<line x1="616" y1="408" x2="616" y2="414" stroke="rgb(64,64,64)" stroke-width="1"/>
<text x="709" y="428" fill="rgb(64,64,64)" font-family="sans-serif" font-size="13">23,600,000</text>
<line x1="745" y1="408" x2="745" y2="414" stroke="rgb(64,64,64)" stroke-width="1"/>
<text x="839" y="428" fill="rgb(64,64,64)" font-family="sans-serif" font-size="13">23,650,000</text>
<line x1="875" y1="408" x2="875" y2="414" stroke="rgb(64,64,64)" stroke-width="1"/>
<text x="969" y="428" fill="rgb(64,64,64)" font-family="sans-serif" font-size="13">23,700,000</text>
<line x1="1005" y1="408" x2="1005" y2="414" stroke="rgb(64,64,64)" stroke-width="1"/>
<text x="1099" y="428" fill="rgb(64,64,64)" font-family="sans-serif" font-size="13">23,750,000</text>
<line x1="1135" y1="408" x2="1135" y2="414" stroke="rgb(64,64,64)" stroke-width="1"/>
<text x="1229" y="428" fill="rgb(64,64,64)" font-family="sans-serif" font-size="13">23,800,000</text>
<line x1="1265" y1="408" x2="1265" y2="414" stroke="rgb(64,64,64)" stroke-width="1"/>
<text x="1358" y="428" fill="rgb(64,64,64)" font-family="sans-serif" font-size="13">23,850,000</text>
<line x1="1394" y1="408" x2="1394" y2="414" stroke="rgb(64,64,64)" stroke-width="1"/>
<rect width="1436" height="242" x="0" y="163" style="fill:rgb(238,238,238);stroke:none"/>
<rect width="1432" height="242" x="2" y="163" style="fill:rgb(255,255,255);stroke:none"/>
<text x="698" y="282" fill="rgb(128,128,128)" font-family="sans-serif" font-size="13">DataStore Not Quantitated</text>
<line x1="2" y1="404" x2="1434" y2="404" stroke="rgb(192,192,192)" stroke-width="1"/>
<line x1="2" y1="403" x2="1434" y2="403" stroke="rgb(255,0,0)" stroke-width="1"/>
<line x1="2" y1="404" x2="1434" y2="404" stroke="rgb(255,0,0)" stroke-width="1"/>
<line x1="2" y1="163" x2="1434" y2="163" stroke="rgb(255,0,0)" stroke-width="1"/>
<line x1="2" y1="164" x2="1434" y2="164" stroke="rgb(255,0,0)" stroke-width="1"/>
<rect width="58" height="16" x="2" y="269" style="fill:rgb(255,255,255);stroke:none"/>
<text x="4" y="282" fill="rgb(128,128,128)" font-family="sans-serif" font-size="13">BCR_raw</text>
<rect width="1436" height="48" x="0" y="115" style="fill:rgb(238,238,238);stroke:none"/>
<rect width="1432" height="48" x="2" y="115" style="fill:rgb(180,180,255);stroke:none"/>
<rect width="2" height="32" x="229" y="117" style="fill:rgb(0,0,220);stroke:none"/>
<line x1="235" y1="127" x2="231" y2="133" stroke="rgb(0,0,220)" stroke-width="1"/>
<line x1="235" y1="139" x2="231" y2="133" stroke="rgb(0,0,220)" stroke-width="1"/>
<rect width="2" height="32" x="235" y="117" style="fill:rgb(0,0,220);stroke:none"/>
<line x1="241" y1="127" x2="237" y2="133" stroke="rgb(0,0,220)" stroke-width="1"/>
<line x1="241" y1="139" x2="237" y2="133" stroke="rgb(0,0,220)" stroke-width="1"/>
<rect width="2" height="32" x="241" y="117" style="fill:rgb(0,0,220);stroke:none"/>
<line x1="423" y1="127" x2="243" y2="133" stroke="rgb(0,0,220)" stroke-width="1"/>
<line x1="423" y1="139" x2="243" y2="133" stroke="rgb(0,0,220)" stroke-width="1"/>
<rect width="2" height="32" x="423" y="117" style="fill:rgb(0,0,220);stroke:none"/>
<line x1="435" y1="127" x2="425" y2="133" stroke="rgb(0,0,220)" stroke-width="1"/>
<line x1="435" y1="139" x2="425" y2="133" stroke="rgb(0,0,220)" stroke-width="1"/>
<rect width="2" height="32" x="435" y="117" style="fill:rgb(0,0,220);stroke:none"/>
<line x1="439" y1="127" x2="437" y2="133" stroke="rgb(0,0,220)" stroke-width="1"/>
<line x1="439" y1="139" x2="437" y2="133" stroke="rgb(0,0,220)" stroke-width="1"/>
<rect width="2" height="32" x="439" y="117" style="fill:rgb(0,0,220);stroke:none"/>
<line x1="443" y1="127" x2="441" y2="133" stroke="rgb(0,0,220)" stroke-width="1"/>
<line x1="443" y1="139" x2="441" y2="133" stroke="rgb(0,0,220)" stroke-width="1"/>
<rect width="2" height="32" x="443" y="117" style="fill:rgb(0,0,220);stroke:none"/>
<rect width="2" height="32" x="258" y="117" style="fill:rgb(220,0,0);stroke:none"/>
<line x1="260" y1="127" x2="324" y2="133" stroke="rgb(220,0,0)" stroke-width="1"/>
<line x1="260" y1="139" x2="324" y2="133" stroke="rgb(220,0,0)" stroke-width="1"/>
<rect width="3" height="32" x="324" y="117" style="fill:rgb(220,0,0);stroke:none"/>
<line x1="327" y1="127" x2="396" y2="133" stroke="rgb(220,0,0)" stroke-width="1"/>
<line x1="327" y1="139" x2="396" y2="133" stroke="rgb(220,0,0)" stroke-width="1"/>
<rect width="5" height="32" x="396" y="117" style="fill:rgb(220,0,0);stroke:none"/>
<rect width="2" height="32" x="258" y="117" style="fill:rgb(220,0,0);stroke:none"/>
<line x1="260" y1="127" x2="322" y2="133" stroke="rgb(220,0,0)" stroke-width="1"/>
<line x1="260" y1="139" x2="322" y2="133" stroke="rgb(220,0,0)" stroke-width="1"/>
<rect width="2" height="32" x="322" y="117" style="fill:rgb(220,0,0);stroke:none"/>
<line x1="324" y1="127" x2="325" y2="133" stroke="rgb(220,0,0)" stroke-width="1"/>
<line x1="324" y1="139" x2="325" y2="133" stroke="rgb(220,0,0)" stroke-width="1"/>
<rect width="2" height="32" x="325" y="117" style="fill:rgb(220,0,0);stroke:none"/>
<line x1="327" y1="127" x2="396" y2="133" stroke="rgb(220,0,0)" stroke-width="1"/>
<line x1="327" y1="139" x2="396" y2="133" stroke="rgb(220,0,0)" stroke-width="1"/>
<rect width="2" height="32" x="396" y="117" style="fill:rgb(220,0,0);stroke:none"/>
<rect width="2" height="32" x="398" y="117" style="fill:rgb(0,0,220);stroke:none"/>
<line x1="422" y1="127" x2="400" y2="133" stroke="rgb(0,0,220)" stroke-width="1"/>
<line x1="422" y1="139" x2="400" y2="133" stroke="rgb(0,0,220)" stroke-width="1"/>
<rect width="2" height="32" x="422" y="117" style="fill:rgb(0,0,220);stroke:none"/>
<rect width="2" height="32" x="416" y="117" style="fill:rgb(0,0,220);stroke:none"/>
<line x1="423" y1="127" x2="418" y2="133" stroke="rgb(0,0,220)" stroke-width="1"/>
<line x1="423" y1="139" x2="418" y2="133" stroke="rgb(0,0,220)" stroke-width="1"/>
<rect width="2" height="32" x="423" y="117" style="fill:rgb(0,0,220);stroke:none"/>
<line x1="435" y1="127" x2="425" y2="133" stroke="rgb(0,0,220)" stroke-width="1"/>
<line x1="435" y1="139" x2="425" y2="133" stroke="rgb(0,0,220)" stroke-width="1"/>
<rect width="2" height="32" x="435" y="117" style="fill:rgb(0,0,220);stroke:none"/>
<rect width="2" height="32" x="428" y="117" style="fill:rgb(0,0,220);stroke:none"/>
<line x1="435" y1="127" x2="430" y2="133" stroke="rgb(0,0,220)" stroke-width="1"/>
<line x1="435" y1="139" x2="430" y2="133" stroke="rgb(0,0,220)" stroke-width="1"/>
<rect width="2" height="32" x="435" y="117" style="fill:rgb(0,0,220);stroke:none"/>
<line x1="439" y1="127" x2="437" y2="133" stroke="rgb(0,0,220)" stroke-width="1"/>
<line x1="439" y1="139" x2="437" y2="133" stroke="rgb(0,0,220)" stroke-width="1"/>
<rect width="2" height="32" x="439" y="117" style="fill:rgb(0,0,220);stroke:none"/>
<rect width="2" height="32" x="428" y="117" style="fill:rgb(0,0,220);stroke:none"/>
<line x1="435" y1="127" x2="430" y2="133" stroke="rgb(0,0,220)" stroke-width="1"/>
<line x1="435" y1="139" x2="430" y2="133" stroke="rgb(0,0,220)" stroke-width="1"/>
<rect width="2" height="32" x="435" y="117" style="fill:rgb(0,0,220);stroke:none"/>
<line x1="439" y1="127" x2="437" y2="133" stroke="rgb(0,0,220)" stroke-width="1"/>
<line x1="439" y1="139" x2="437" y2="133" stroke="rgb(0,0,220)" stroke-width="1"/>
<rect width="2" height="32" x="439" y="117" style="fill:rgb(0,0,220);stroke:none"/>
<line x1="451" y1="127" x2="441" y2="133" stroke="rgb(0,0,220)" stroke-width="1"/>
<line x1="451" y1="139" x2="441" y2="133" stroke="rgb(0,0,220)" stroke-width="1"/>
<rect width="2" height="32" x="451" y="117" style="fill:rgb(0,0,220);stroke:none"/>
<rect width="2" height="32" x="452" y="117" style="fill:rgb(220,0,0);stroke:none"/>
<line x1="454" y1="127" x2="455" y2="133" stroke="rgb(220,0,0)" stroke-width="1"/>
<line x1="454" y1="139" x2="455" y2="133" stroke="rgb(220,0,0)" stroke-width="1"/>
<rect width="2" height="32" x="455" y="117" style="fill:rgb(220,0,0);stroke:none"/>
<line x1="457" y1="127" x2="464" y2="133" stroke="rgb(220,0,0)" stroke-width="1"/>
<line x1="457" y1="139" x2="464" y2="133" stroke="rgb(220,0,0)" stroke-width="1"/>
<rect width="2" height="32" x="464" y="117" style="fill:rgb(220,0,0);stroke:none"/>
<line x1="466" y1="127" x2="470" y2="133" stroke="rgb(220,0,0)" stroke-width="1"/>
<line x1="466" y1="139" x2="470" y2="133" stroke="rgb(220,0,0)" stroke-width="1"/>
<rect width="2" height="32" x="470" y="117" style="fill:rgb(220,0,0);stroke:none"/>
<line x1="472" y1="127" x2="472" y2="133" stroke="rgb(220,0,0)" stroke-width="1"/>
<line x1="472" y1="139" x2="472" y2="133" stroke="rgb(220,0,0)" stroke-width="1"/>
<rect width="2" height="32" x="472" y="117" style="fill:rgb(220,0,0);stroke:none"/>
<line x1="474" y1="127" x2="479" y2="133" stroke="rgb(220,0,0)" stroke-width="1"/>
<line x1="474" y1="139" x2="479" y2="133" stroke="rgb(220,0,0)" stroke-width="1"/>
<rect width="2" height="32" x="479" y="117" style="fill:rgb(220,0,0);stroke:none"/>
<line x1="481" y1="127" x2="485" y2="133" stroke="rgb(220,0,0)" stroke-width="1"/>
<line x1="481" y1="139" x2="485" y2="133" stroke="rgb(220,0,0)" stroke-width="1"/>
<rect width="2" height="32" x="485" y="117" style="fill:rgb(220,0,0);stroke:none"/>
<line x1="487" y1="127" x2="487" y2="133" stroke="rgb(220,0,0)" stroke-width="1"/>
<line x1="487" y1="139" x2="487" y2="133" stroke="rgb(220,0,0)" stroke-width="1"/>
<rect width="2" height="32" x="487" y="117" style="fill:rgb(220,0,0);stroke:none"/>
<line x1="489" y1="127" x2="488" y2="133" stroke="rgb(220,0,0)" stroke-width="1"/>
<line x1="489" y1="139" x2="488" y2="133" stroke="rgb(220,0,0)" stroke-width="1"/>
<rect width="2" height="32" x="488" y="117" style="fill:rgb(220,0,0);stroke:none"/>
<line x1="490" y1="127" x2="492" y2="133" stroke="rgb(220,0,0)" stroke-width="1"/>
<line x1="490" y1="139" x2="492" y2="133" stroke="rgb(220,0,0)" stroke-width="1"/>
<rect width="2" height="32" x="492" y="117" style="fill:rgb(220,0,0);stroke:none"/>
<line x1="494" y1="127" x2="496" y2="133" stroke="rgb(220,0,0)" stroke-width="1"/>
<line x1="494" y1="139" x2="496" y2="133" stroke="rgb(220,0,0)" stroke-width="1"/>
<rect width="7" height="32" x="496" y="117" style="fill:rgb(220,0,0);stroke:none"/>
<rect width="2" height="32" x="452" y="117" style="fill:rgb(220,0,0);stroke:none"/>
<line x1="454" y1="127" x2="455" y2="133" stroke="rgb(220,0,0)" stroke-width="1"/>
<line x1="454" y1="139" x2="455" y2="133" stroke="rgb(220,0,0)" stroke-width="1"/>
<rect width="2" height="32" x="455" y="117" style="fill:rgb(220,0,0);stroke:none"/>
<line x1="457" y1="127" x2="464" y2="133" stroke="rgb(220,0,0)" stroke-width="1"/>
<line x1="457" y1="139" x2="464" y2="133" stroke="rgb(220,0,0)" stroke-width="1"/>
<rect width="2" height="32" x="464" y="117" style="fill:rgb(220,0,0);stroke:none"/>
<line x1="466" y1="127" x2="472" y2="133" stroke="rgb(220,0,0)" stroke-width="1"/>
<line x1="466" y1="139" x2="472" y2="133" stroke="rgb(220,0,0)" stroke-width="1"/>
<rect width="2" height="32" x="472" y="117" style="fill:rgb(220,0,0);stroke:none"/>
<line x1="474" y1="127" x2="479" y2="133" stroke="rgb(220,0,0)" stroke-width="1"/>
<line x1="474" y1="139" x2="479" y2="133" stroke="rgb(220,0,0)" stroke-width="1"/>
<rect width="2" height="32" x="479" y="117" style="fill:rgb(220,0,0);stroke:none"/>
<line x1="481" y1="127" x2="485" y2="133" stroke="rgb(220,0,0)" stroke-width="1"/>
<line x1="481" y1="139" x2="485" y2="133" stroke="rgb(220,0,0)" stroke-width="1"/>
<rect width="2" height="32" x="485" y="117" style="fill:rgb(220,0,0);stroke:none"/>
<line x1="487" y1="127" x2="487" y2="133" stroke="rgb(220,0,0)" stroke-width="1"/>
<line x1="487" y1="139" x2="487" y2="133" stroke="rgb(220,0,0)" stroke-width="1"/>
<rect width="2" height="32" x="487" y="117" style="fill:rgb(220,0,0);stroke:none"/>
<line x1="489" y1="127" x2="488" y2="133" stroke="rgb(220,0,0)" stroke-width="1"/>
<line x1="489" y1="139" x2="488" y2="133" stroke="rgb(220,0,0)" stroke-width="1"/>
<rect width="2" height="32" x="488" y="117" style="fill:rgb(220,0,0);stroke:none"/>
<line x1="490" y1="127" x2="492" y2="133" stroke="rgb(220,0,0)" stroke-width="1"/>
<line x1="490" y1="139" x2="492" y2="133" stroke="rgb(220,0,0)" stroke-width="1"/>
<rect width="2" height="32" x="492" y="117" style="fill:rgb(220,0,0);stroke:none"/>
<line x1="494" y1="127" x2="494" y2="133" stroke="rgb(220,0,0)" stroke-width="1"/>
<line x1="494" y1="139" x2="494" y2="133" stroke="rgb(220,0,0)" stroke-width="1"/>
<rect width="2" height="32" x="494" y="117" style="fill:rgb(220,0,0);stroke:none"/>
<rect width="2" height="32" x="452" y="117" style="fill:rgb(220,0,0);stroke:none"/>
<line x1="454" y1="127" x2="455" y2="133" stroke="rgb(220,0,0)" stroke-width="1"/>
<line x1="454" y1="139" x2="455" y2="133" stroke="rgb(220,0,0)" stroke-width="1"/>
<rect width="2" height="32" x="455" y="117" style="fill:rgb(220,0,0);stroke:none"/>
<line x1="457" y1="127" x2="464" y2="133" stroke="rgb(220,0,0)" stroke-width="1"/>
<line x1="457" y1="139" x2="464" y2="133" stroke="rgb(220,0,0)" stroke-width="1"/>
<rect width="2" height="32" x="464" y="117" style="fill:rgb(220,0,0);stroke:none"/>
<line x1="466" y1="127" x2="470" y2="133" stroke="rgb(220,0,0)" stroke-width="1"/>
<line x1="466" y1="139" x2="470" y2="133" stroke="rgb(220,0,0)" stroke-width="1"/>
<rect width="2" height="32" x="470" y="117" style="fill:rgb(220,0,0);stroke:none"/>
<line x1="472" y1="127" x2="498" y2="133" stroke="rgb(220,0,0)" stroke-width="1"/>
<line x1="472" y1="139" x2="498" y2="133" stroke="rgb(220,0,0)" stroke-width="1"/>
<rect width="2" height="32" x="498" y="117" style="fill:rgb(220,0,0);stroke:none"/>
<line x1="500" y1="127" x2="500" y2="133" stroke="rgb(220,0,0)" stroke-width="1"/>
<line x1="500" y1="139" x2="500" y2="133" stroke="rgb(220,0,0)" stroke-width="1"/>
<rect width="2" height="32" x="500" y="117" style="fill:rgb(220,0,0);stroke:none"/>
<rect width="2" height="32" x="464" y="117" style="fill:rgb(220,0,0);stroke:none"/>
<line x1="466" y1="127" x2="470" y2="133" stroke="rgb(220,0,0)" stroke-width="1"/>
<line x1="466" y1="139" x2="470" y2="133" stroke="rgb(220,0,0)" stroke-width="1"/>
<rect width="2" height="32" x="470" y="117" style="fill:rgb(220,0,0);stroke:none"/>
<line x1="472" y1="127" x2="472" y2="133" stroke="rgb(220,0,0)" stroke-width="1"/>
<line x1="472" y1="139" x2="472" y2="133" stroke="rgb(220,0,0)" stroke-width="1"/>
<rect width="2" height="32" x="472" y="117" style="fill:rgb(220,0,0);stroke:none"/>
<line x1="474" y1="127" x2="480" y2="133" stroke="rgb(220,0,0)" stroke-width="1"/>
<line x1="474" y1="139" x2="480" y2="133" stroke="rgb(220,0,0)" stroke-width="1"/>
<rect width="2" height="32" x="480" y="117" style="fill:rgb(220,0,0);stroke:none"/>
<rect width="5" height="32" x="544" y="117" style="fill:rgb(220,0,0);stroke:none"/>
<line x1="549" y1="127" x2="734" y2="133" stroke="rgb(220,0,0)" stroke-width="1"/>
<line x1="549" y1="139" x2="734" y2="133" stroke="rgb(220,0,0)" stroke-width="1"/>
<rect width="2" height="32" x="734" y="117" style="fill:rgb(220,0,0);stroke:none"/>
<line x1="736" y1="127" x2="752" y2="133" stroke="rgb(220,0,0)" stroke-width="1"/>
<line x1="736" y1="139" x2="752" y2="133" stroke="rgb(220,0,0)" stroke-width="1"/>
<rect width="2" height="32" x="752" y="117" style="fill:rgb(220,0,0);stroke:none"/>
<line x1="754" y1="127" x2="753" y2="133" stroke="rgb(220,0,0)" stroke-width="1"/>
<line x1="754" y1="139" x2="753" y2="133" stroke="rgb(220,0,0)" stroke-width="1"/>
<rect width="2" height="32" x="753" y="117" style="fill:rgb(220,0,0);stroke:none"/>
<line x1="755" y1="127" x2="771" y2="133" stroke="rgb(220,0,0)" stroke-width="1"/>
<line x1="755" y1="139" x2="771" y2="133" stroke="rgb(220,0,0)" stroke-width="1"/>
<rect width="2" height="32" x="771" y="117" style="fill:rgb(220,0,0);stroke:none"/>
<line x1="773" y1="127" x2="779" y2="133" stroke="rgb(220,0,0)" stroke-width="1"/>
<line x1="773" y1="139" x2="779" y2="133" stroke="rgb(220,0,0)" stroke-width="1"/>
<rect width="2" height="32" x="779" y="117" style="fill:rgb(220,0,0);stroke:none"/>
<line x1="781" y1="127" x2="783" y2="133" stroke="rgb(220,0,0)" stroke-width="1"/>
<line x1="781" y1="139" x2="783" y2="133" stroke="rgb(220,0,0)" stroke-width="1"/>
<rect width="2" height="32" x="783" y="117" style="fill:rgb(220,0,0);stroke:none"/>
<line x1="785" y1="127" x2="785" y2="133" stroke="rgb(220,0,0)" stroke-width="1"/>
<line x1="785" y1="139" x2="785" y2="133" stroke="rgb(220,0,0)" stroke-width="1"/>
<rect width="2" height="32" x="785" y="117" style="fill:rgb(220,0,0);stroke:none"/>
<line x1="787" y1="127" x2="812" y2="133" stroke="rgb(220,0,0)" stroke-width="1"/>
<line x1="787" y1="139" x2="812" y2="133" stroke="rgb(220,0,0)" stroke-width="1"/>
<rect width="2" height="32" x="812" y="117" style="fill:rgb(220,0,0);stroke:none"/>
<line x1="814" y1="127" x2="815" y2="133" stroke="rgb(220,0,0)" stroke-width="1"/>
<line x1="814" y1="139" x2="815" y2="133" stroke="rgb(220,0,0)" stroke-width="1"/>
<rect width="2" height="32" x="815" y="117" style="fill:rgb(220,0,0);stroke:none"/>
<line x1="817" y1="127" x2="820" y2="133" stroke="rgb(220,0,0)" stroke-width="1"/>
<line x1="817" y1="139" x2="820" y2="133" stroke="rgb(220,0,0)" stroke-width="1"/>
<rect width="2" height="32" x="820" y="117" style="fill:rgb(220,0,0);stroke:none"/>
<line x1="822" y1="127" x2="822" y2="133" stroke="rgb(220,0,0)" stroke-width="1"/>
<line x1="822" y1="139" x2="822" y2="133" stroke="rgb(220,0,0)" stroke-width="1"/>
<rect width="2" height="32" x="822" y="117" style="fill:rgb(220,0,0);stroke:none"/>
<line x1="824" y1="127" x2="826" y2="133" stroke="rgb(220,0,0)" stroke-width="1"/>
<line x1="824" y1="139" x2="826" y2="133" stroke="rgb(220,0,0)" stroke-width="1"/>
<rect width="2" height="32" x="826" y="117" style="fill:rgb(220,0,0);stroke:none"/>
<line x1="828" y1="127" x2="828" y2="133" stroke="rgb(220,0,0)" stroke-width="1"/>
<line x1="828" y1="139" x2="828" y2="133" stroke="rgb(220,0,0)" stroke-width="1"/>
<rect width="2" height="32" x="828" y="117" style="fill:rgb(220,0,0);stroke:none"/>
<line x1="830" y1="127" x2="834" y2="133" stroke="rgb(220,0,0)" stroke-width="1"/>
<line x1="830" y1="139" x2="834" y2="133" stroke="rgb(220,0,0)" stroke-width="1"/>
<rect width="2" height="32" x="834" y="117" style="fill:rgb(220,0,0);stroke:none"/>
<line x1="836" y1="127" x2="840" y2="133" stroke="rgb(220,0,0)" stroke-width="1"/>
<line x1="836" y1="139" x2="840" y2="133" stroke="rgb(220,0,0)" stroke-width="1"/>
<rect width="2" height="32" x="840" y="117" style="fill:rgb(220,0,0);stroke:none"/>
<line x1="842" y1="127" x2="878" y2="133" stroke="rgb(220,0,0)" stroke-width="1"/>
<line x1="842" y1="139" x2="878" y2="133" stroke="rgb(220,0,0)" stroke-width="1"/>
<rect width="2" height="32" x="878" y="117" style="fill:rgb(220,0,0);stroke:none"/>
<line x1="880" y1="127" x2="880" y2="133" stroke="rgb(220,0,0)" stroke-width="1"/>
<line x1="880" y1="139" x2="880" y2="133" stroke="rgb(220,0,0)" stroke-width="1"/>
<rect width="2" height="32" x="880" y="117" style="fill:rgb(220,0,0);stroke:none"/>
<line x1="882" y1="127" x2="884" y2="133" stroke="rgb(220,0,0)" stroke-width="1"/>
<line x1="882" y1="139" x2="884" y2="133" stroke="rgb(220,0,0)" stroke-width="1"/>
<rect width="2" height="32" x="884" y="117" style="fill:rgb(220,0,0);stroke:none"/>
<line x1="886" y1="127" x2="887" y2="133" stroke="rgb(220,0,0)" stroke-width="1"/>
<line x1="886" y1="139" x2="887" y2="133" stroke="rgb(220,0,0)" stroke-width="1"/>
<rect width="2" height="32" x="887" y="117" style="fill:rgb(220,0,0);stroke:none"/>
<line x1="889" y1="127" x2="889" y2="133" stroke="rgb(220,0,0)" stroke-width="1"/>
<line x1="889" y1="139" x2="889" y2="133" stroke="rgb(220,0,0)" stroke-width="1"/>
<rect width="2" height="32" x="889" y="117" style="fill:rgb(220,0,0);stroke:none"/>
<line x1="891" y1="127" x2="891" y2="133" stroke="rgb(220,0,0)" stroke-width="1"/>
<line x1="891" y1="139" x2="891" y2="133" stroke="rgb(220,0,0)" stroke-width="1"/>
<rect width="2" height="32" x="891" y="117" style="fill:rgb(220,0,0);stroke:none"/>
<line x1="893" y1="127" x2="895" y2="133" stroke="rgb(220,0,0)" stroke-width="1"/>
<line x1="893" y1="139" x2="895" y2="133" stroke="rgb(220,0,0)" stroke-width="1"/>
<rect width="7" height="32" x="895" y="117" style="fill:rgb(220,0,0);stroke:none"/>
<rect width="5" height="32" x="544" y="117" style="fill:rgb(220,0,0);stroke:none"/>
<line x1="549" y1="127" x2="734" y2="133" stroke="rgb(220,0,0)" stroke-width="1"/>
<line x1="549" y1="139" x2="734" y2="133" stroke="rgb(220,0,0)" stroke-width="1"/>
<rect width="2" height="32" x="734" y="117" style="fill:rgb(220,0,0);stroke:none"/>
<line x1="736" y1="127" x2="752" y2="133" stroke="rgb(220,0,0)" stroke-width="1"/>
<line x1="736" y1="139" x2="752" y2="133" stroke="rgb(220,0,0)" stroke-width="1"/>
<rect width="2" height="32" x="752" y="117" style="fill:rgb(220,0,0);stroke:none"/>
<line x1="754" y1="127" x2="753" y2="133" stroke="rgb(220,0,0)" stroke-width="1"/>
<line x1="754" y1="139" x2="753" y2="133" stroke="rgb(220,0,0)" stroke-width="1"/>
<rect width="2" height="32" x="753" y="117" style="fill:rgb(220,0,0);stroke:none"/>
<line x1="755" y1="127" x2="771" y2="133" stroke="rgb(220,0,0)" stroke-width="1"/>
<line x1="755" y1="139" x2="771" y2="133" stroke="rgb(220,0,0)" stroke-width="1"/>
<rect width="2" height="32" x="771" y="117" style="fill:rgb(220,0,0);stroke:none"/>
<line x1="773" y1="127" x2="779" y2="133" stroke="rgb(220,0,0)" stroke-width="1"/>
<line x1="773" y1="139" x2="779" y2="133" stroke="rgb(220,0,0)" stroke-width="1"/>
<rect width="2" height="32" x="779" y="117" style="fill:rgb(220,0,0);stroke:none"/>
<line x1="781" y1="127" x2="783" y2="133" stroke="rgb(220,0,0)" stroke-width="1"/>
<line x1="781" y1="139" x2="783" y2="133" stroke="rgb(220,0,0)" stroke-width="1"/>
<rect width="2" height="32" x="783" y="117" style="fill:rgb(220,0,0);stroke:none"/>
<line x1="785" y1="127" x2="785" y2="133" stroke="rgb(220,0,0)" stroke-width="1"/>
<line x1="785" y1="139" x2="785" y2="133" stroke="rgb(220,0,0)" stroke-width="1"/>
<rect width="2" height="32" x="785" y="117" style="fill:rgb(220,0,0);stroke:none"/>
<line x1="787" y1="127" x2="812" y2="133" stroke="rgb(220,0,0)" stroke-width="1"/>
<line x1="787" y1="139" x2="812" y2="133" stroke="rgb(220,0,0)" stroke-width="1"/>
<rect width="2" height="32" x="812" y="117" style="fill:rgb(220,0,0);stroke:none"/>
<line x1="814" y1="127" x2="815" y2="133" stroke="rgb(220,0,0)" stroke-width="1"/>
<line x1="814" y1="139" x2="815" y2="133" stroke="rgb(220,0,0)" stroke-width="1"/>
<rect width="2" height="32" x="815" y="117" style="fill:rgb(220,0,0);stroke:none"/>
<line x1="817" y1="127" x2="820" y2="133" stroke="rgb(220,0,0)" stroke-width="1"/>
<line x1="817" y1="139" x2="820" y2="133" stroke="rgb(220,0,0)" stroke-width="1"/>
<rect width="2" height="32" x="820" y="117" style="fill:rgb(220,0,0);stroke:none"/>
<line x1="822" y1="127" x2="822" y2="133" stroke="rgb(220,0,0)" stroke-width="1"/>
<line x1="822" y1="139" x2="822" y2="133" stroke="rgb(220,0,0)" stroke-width="1"/>
<rect width="2" height="32" x="822" y="117" style="fill:rgb(220,0,0);stroke:none"/>
<line x1="824" y1="127" x2="826" y2="133" stroke="rgb(220,0,0)" stroke-width="1"/>
<line x1="824" y1="139" x2="826" y2="133" stroke="rgb(220,0,0)" stroke-width="1"/>
<rect width="2" height="32" x="826" y="117" style="fill:rgb(220,0,0);stroke:none"/>
<line x1="828" y1="127" x2="828" y2="133" stroke="rgb(220,0,0)" stroke-width="1"/>
<line x1="828" y1="139" x2="828" y2="133" stroke="rgb(220,0,0)" stroke-width="1"/>
<rect width="2" height="32" x="828" y="117" style="fill:rgb(220,0,0);stroke:none"/>
<line x1="830" y1="127" x2="834" y2="133" stroke="rgb(220,0,0)" stroke-width="1"/>
<line x1="830" y1="139" x2="834" y2="133" stroke="rgb(220,0,0)" stroke-width="1"/>
<rect width="2" height="32" x="834" y="117" style="fill:rgb(220,0,0);stroke:none"/>
<line x1="836" y1="127" x2="878" y2="133" stroke="rgb(220,0,0)" stroke-width="1"/>
<line x1="836" y1="139" x2="878" y2="133" stroke="rgb(220,0,0)" stroke-width="1"/>
<rect width="2" height="32" x="878" y="117" style="fill:rgb(220,0,0);stroke:none"/>
<line x1="880" y1="127" x2="880" y2="133" stroke="rgb(220,0,0)" stroke-width="1"/>
<line x1="880" y1="139" x2="880" y2="133" stroke="rgb(220,0,0)" stroke-width="1"/>
<rect width="2" height="32" x="880" y="117" style="fill:rgb(220,0,0);stroke:none"/>
<line x1="882" y1="127" x2="884" y2="133" stroke="rgb(220,0,0)" stroke-width="1"/>
<line x1="882" y1="139" x2="884" y2="133" stroke="rgb(220,0,0)" stroke-width="1"/>
<rect width="2" height="32" x="884" y="117" style="fill:rgb(220,0,0);stroke:none"/>
<line x1="886" y1="127" x2="887" y2="133" stroke="rgb(220,0,0)" stroke-width="1"/>
<line x1="886" y1="139" x2="887" y2="133" stroke="rgb(220,0,0)" stroke-width="1"/>
<rect width="2" height="32" x="887" y="117" style="fill:rgb(220,0,0);stroke:none"/>
<line x1="889" y1="127" x2="889" y2="133" stroke="rgb(220,0,0)" stroke-width="1"/>
<line x1="889" y1="139" x2="889" y2="133" stroke="rgb(220,0,0)" stroke-width="1"/>
<rect width="2" height="32" x="889" y="117" style="fill:rgb(220,0,0);stroke:none"/>
<line x1="891" y1="127" x2="891" y2="133" stroke="rgb(220,0,0)" stroke-width="1"/>
<line x1="891" y1="139" x2="891" y2="133" stroke="rgb(220,0,0)" stroke-width="1"/>
<rect width="2" height="32" x="891" y="117" style="fill:rgb(220,0,0);stroke:none"/>
<line x1="893" y1="127" x2="894" y2="133" stroke="rgb(220,0,0)" stroke-width="1"/>
<line x1="893" y1="139" x2="894" y2="133" stroke="rgb(220,0,0)" stroke-width="1"/>
<rect width="2" height="32" x="894" y="117" style="fill:rgb(220,0,0);stroke:none"/>
<rect width="5" height="32" x="544" y="117" style="fill:rgb(220,0,0);stroke:none"/>
<line x1="549" y1="127" x2="705" y2="133" stroke="rgb(220,0,0)" stroke-width="1"/>
<line x1="549" y1="139" x2="705" y2="133" stroke="rgb(220,0,0)" stroke-width="1"/>
<rect width="2" height="32" x="705" y="117" style="fill:rgb(220,0,0);stroke:none"/>
<rect width="3" height="32" x="546" y="117" style="fill:rgb(220,0,0);stroke:none"/>
<line x1="549" y1="127" x2="822" y2="133" stroke="rgb(220,0,0)" stroke-width="1"/>
<line x1="549" y1="139" x2="822" y2="133" stroke="rgb(220,0,0)" stroke-width="1"/>
<rect width="2" height="32" x="822" y="117" style="fill:rgb(220,0,0);stroke:none"/>
<line x1="824" y1="127" x2="826" y2="133" stroke="rgb(220,0,0)" stroke-width="1"/>
<line x1="824" y1="139" x2="826" y2="133" stroke="rgb(220,0,0)" stroke-width="1"/>
<rect width="2" height="32" x="826" y="117" style="fill:rgb(220,0,0);stroke:none"/>
<rect width="3" height="32" x="546" y="117" style="fill:rgb(220,0,0);stroke:none"/>
<line x1="549" y1="127" x2="733" y2="133" stroke="rgb(220,0,0)" stroke-width="1"/>
<line x1="549" y1="139" x2="733" y2="133" stroke="rgb(220,0,0)" stroke-width="1"/>
<rect width="2" height="32" x="733" y="117" style="fill:rgb(220,0,0);stroke:none"/>
<line x1="735" y1="127" x2="820" y2="133" stroke="rgb(220,0,0)" stroke-width="1"/>
<line x1="735" y1="139" x2="820" y2="133" stroke="rgb(220,0,0)" stroke-width="1"/>
<rect width="2" height="32" x="820" y="117" style="fill:rgb(220,0,0);stroke:none"/>
<line x1="822" y1="127" x2="822" y2="133" stroke="rgb(220,0,0)" stroke-width="1"/>
<line x1="822" y1="139" x2="822" y2="133" stroke="rgb(220,0,0)" stroke-width="1"/>
<rect width="2" height="32" x="822" y="117" style="fill:rgb(220,0,0);stroke:none"/>
<rect width="3" height="32" x="546" y="117" style="fill:rgb(220,0,0);stroke:none"/>
<line x1="549" y1="127" x2="733" y2="133" stroke="rgb(220,0,0)" stroke-width="1"/>
<line x1="549" y1="139" x2="733" y2="133" stroke="rgb(220,0,0)" stroke-width="1"/>
<rect width="2" height="32" x="733" y="117" style="fill:rgb(220,0,0);stroke:none"/>
<line x1="735" y1="127" x2="785" y2="133" stroke="rgb(220,0,0)" stroke-width="1"/>
<line x1="735" y1="139" x2="785" y2="133" stroke="rgb(220,0,0)" stroke-width="1"/>
<rect width="2" height="32" x="785" y="117" style="fill:rgb(220,0,0);stroke:none"/>
<rect width="2" height="32" x="589" y="117" style="fill:rgb(220,0,0);stroke:none"/>
<line x1="591" y1="127" x2="592" y2="133" stroke="rgb(220,0,0)" stroke-width="1"/>
<line x1="591" y1="139" x2="592" y2="133" stroke="rgb(220,0,0)" stroke-width="1"/>
<rect width="2" height="32" x="592" y="117" style="fill:rgb(220,0,0);stroke:none"/>
<line x1="594" y1="127" x2="734" y2="133" stroke="rgb(220,0,0)" stroke-width="1"/>
<line x1="594" y1="139" x2="734" y2="133" stroke="rgb(220,0,0)" stroke-width="1"/>
<rect width="2" height="32" x="734" y="117" style="fill:rgb(220,0,0);stroke:none"/>
<line x1="736" y1="127" x2="752" y2="133" stroke="rgb(220,0,0)" stroke-width="1"/>
<line x1="736" y1="139" x2="752" y2="133" stroke="rgb(220,0,0)" stroke-width="1"/>
<rect width="2" height="32" x="752" y="117" style="fill:rgb(220,0,0);stroke:none"/>
<line x1="754" y1="127" x2="753" y2="133" stroke="rgb(220,0,0)" stroke-width="1"/>
<line x1="754" y1="139" x2="753" y2="133" stroke="rgb(220,0,0)" stroke-width="1"/>
<rect width="2" height="32" x="753" y="117" style="fill:rgb(220,0,0);stroke:none"/>
<line x1="755" y1="127" x2="771" y2="133" stroke="rgb(220,0,0)" stroke-width="1"/>
<line x1="755" y1="139" x2="771" y2="133" stroke="rgb(220,0,0)" stroke-width="1"/>
<rect width="2" height="32" x="771" y="117" style="fill:rgb(220,0,0);stroke:none"/>
<line x1="773" y1="127" x2="779" y2="133" stroke="rgb(220,0,0)" stroke-width="1"/>
<line x1="773" y1="139" x2="779" y2="133" stroke="rgb(220,0,0)" stroke-width="1"/>
<rect width="2" height="32" x="779" y="117" style="fill:rgb(220,0,0);stroke:none"/>
<line x1="781" y1="127" x2="783" y2="133" stroke="rgb(220,0,0)" stroke-width="1"/>
<line x1="781" y1="139" x2="783" y2="133" stroke="rgb(220,0,0)" stroke-width="1"/>
<rect width="2" height="32" x="783" y="117" style="fill:rgb(220,0,0);stroke:none"/>
<line x1="785" y1="127" x2="785" y2="133" stroke="rgb(220,0,0)" stroke-width="1"/>
<line x1="785" y1="139" x2="785" y2="133" stroke="rgb(220,0,0)" stroke-width="1"/>
<rect width="2" height="32" x="785" y="117" style="fill:rgb(220,0,0);stroke:none"/>
<line x1="787" y1="127" x2="812" y2="133" stroke="rgb(220,0,0)" stroke-width="1"/>
<line x1="787" y1="139" x2="812" y2="133" stroke="rgb(220,0,0)" stroke-width="1"/>
<rect width="2" height="32" x="812" y="117" style="fill:rgb(220,0,0);stroke:none"/>
<line x1="814" y1="127" x2="815" y2="133" stroke="rgb(220,0,0)" stroke-width="1"/>
<line x1="814" y1="139" x2="815" y2="133" stroke="rgb(220,0,0)" stroke-width="1"/>
<rect width="2" height="32" x="815" y="117" style="fill:rgb(220,0,0);stroke:none"/>
<line x1="817" y1="127" x2="820" y2="133" stroke="rgb(220,0,0)" stroke-width="1"/>
<line x1="817" y1="139" x2="820" y2="133" stroke="rgb(220,0,0)" stroke-width="1"/>
<rect width="2" height="32" x="820" y="117" style="fill:rgb(220,0,0);stroke:none"/>
<line x1="822" y1="127" x2="822" y2="133" stroke="rgb(220,0,0)" stroke-width="1"/>
<line x1="822" y1="139" x2="822" y2="133" stroke="rgb(220,0,0)" stroke-width="1"/>
<rect width="2" height="32" x="822" y="117" style="fill:rgb(220,0,0);stroke:none"/>
<line x1="824" y1="127" x2="826" y2="133" stroke="rgb(220,0,0)" stroke-width="1"/>
<line x1="824" y1="139" x2="826" y2="133" stroke="rgb(220,0,0)" stroke-width="1"/>
<rect width="2" height="32" x="826" y="117" style="fill:rgb(220,0,0);stroke:none"/>
<line x1="828" y1="127" x2="828" y2="133" stroke="rgb(220,0,0)" stroke-width="1"/>
<line x1="828" y1="139" x2="828" y2="133" stroke="rgb(220,0,0)" stroke-width="1"/>
<rect width="2" height="32" x="828" y="117" style="fill:rgb(220,0,0);stroke:none"/>
<line x1="830" y1="127" x2="834" y2="133" stroke="rgb(220,0,0)" stroke-width="1"/>
<line x1="830" y1="139" x2="834" y2="133" stroke="rgb(220,0,0)" stroke-width="1"/>
<rect width="2" height="32" x="834" y="117" style="fill:rgb(220,0,0);stroke:none"/>
<line x1="836" y1="127" x2="840" y2="133" stroke="rgb(220,0,0)" stroke-width="1"/>
<line x1="836" y1="139" x2="840" y2="133" stroke="rgb(220,0,0)" stroke-width="1"/>
<rect width="2" height="32" x="840" y="117" style="fill:rgb(220,0,0);stroke:none"/>
<line x1="842" y1="127" x2="878" y2="133" stroke="rgb(220,0,0)" stroke-width="1"/>
<line x1="842" y1="139" x2="878" y2="133" stroke="rgb(220,0,0)" stroke-width="1"/>
<rect width="2" height="32" x="878" y="117" style="fill:rgb(220,0,0);stroke:none"/>
<line x1="880" y1="127" x2="880" y2="133" stroke="rgb(220,0,0)" stroke-width="1"/>
<line x1="880" y1="139" x2="880" y2="133" stroke="rgb(220,0,0)" stroke-width="1"/>
<rect width="2" height="32" x="880" y="117" style="fill:rgb(220,0,0);stroke:none"/>
<line x1="882" y1="127" x2="884" y2="133" stroke="rgb(220,0,0)" stroke-width="1"/>
<line x1="882" y1="139" x2="884" y2="133" stroke="rgb(220,0,0)" stroke-width="1"/>
<rect width="2" height="32" x="884" y="117" style="fill:rgb(220,0,0);stroke:none"/>
<line x1="886" y1="127" x2="887" y2="133" stroke="rgb(220,0,0)" stroke-width="1"/>
<line x1="886" y1="139" x2="887" y2="133" stroke="rgb(220,0,0)" stroke-width="1"/>
<rect width="2" height="32" x="887" y="117" style="fill:rgb(220,0,0);stroke:none"/>
<line x1="889" y1="127" x2="889" y2="133" stroke="rgb(220,0,0)" stroke-width="1"/>
<line x1="889" y1="139" x2="889" y2="133" stroke="rgb(220,0,0)" stroke-width="1"/>
<rect width="2" height="32" x="889" y="117" style="fill:rgb(220,0,0);stroke:none"/>
<line x1="891" y1="127" x2="891" y2="133" stroke="rgb(220,0,0)" stroke-width="1"/>
<line x1="891" y1="139" x2="891" y2="133" stroke="rgb(220,0,0)" stroke-width="1"/>
<rect width="2" height="32" x="891" y="117" style="fill:rgb(220,0,0);stroke:none"/>
<line x1="893" y1="127" x2="894" y2="133" stroke="rgb(220,0,0)" stroke-width="1"/>
<line x1="893" y1="139" x2="894" y2="133" stroke="rgb(220,0,0)" stroke-width="1"/>
<rect width="2" height="32" x="894" y="117" style="fill:rgb(220,0,0);stroke:none"/>
<rect width="2" height="32" x="734" y="117" style="fill:rgb(220,0,0);stroke:none"/>
<line x1="736" y1="127" x2="752" y2="133" stroke="rgb(220,0,0)" stroke-width="1"/>
<line x1="736" y1="139" x2="752" y2="133" stroke="rgb(220,0,0)" stroke-width="1"/>
<rect width="2" height="32" x="752" y="117" style="fill:rgb(220,0,0);stroke:none"/>
<line x1="754" y1="127" x2="753" y2="133" stroke="rgb(220,0,0)" stroke-width="1"/>
<line x1="754" y1="139" x2="753" y2="133" stroke="rgb(220,0,0)" stroke-width="1"/>
<rect width="2" height="32" x="753" y="117" style="fill:rgb(220,0,0);stroke:none"/>
<line x1="755" y1="127" x2="779" y2="133" stroke="rgb(220,0,0)" stroke-width="1"/>
<line x1="755" y1="139" x2="779" y2="133" stroke="rgb(220,0,0)" stroke-width="1"/>
<rect width="2" height="32" x="779" y="117" style="fill:rgb(220,0,0);stroke:none"/>
<line x1="781" y1="127" x2="783" y2="133" stroke="rgb(220,0,0)" stroke-width="1"/>
<line x1="781" y1="139" x2="783" y2="133" stroke="rgb(220,0,0)" stroke-width="1"/>
<rect width="2" height="32" x="783" y="117" style="fill:rgb(220,0,0);stroke:none"/>
<line x1="785" y1="127" x2="785" y2="133" stroke="rgb(220,0,0)" stroke-width="1"/>
<line x1="785" y1="139" x2="785" y2="133" stroke="rgb(220,0,0)" stroke-width="1"/>
<rect width="2" height="32" x="785" y="117" style="fill:rgb(220,0,0);stroke:none"/>
<line x1="787" y1="127" x2="812" y2="133" stroke="rgb(220,0,0)" stroke-width="1"/>
<line x1="787" y1="139" x2="812" y2="133" stroke="rgb(220,0,0)" stroke-width="1"/>
<rect width="2" height="32" x="812" y="117" style="fill:rgb(220,0,0);stroke:none"/>
<line x1="814" y1="127" x2="814" y2="133" stroke="rgb(220,0,0)" stroke-width="1"/>
<line x1="814" y1="139" x2="814" y2="133" stroke="rgb(220,0,0)" stroke-width="1"/>
<rect width="2" height="32" x="814" y="117" style="fill:rgb(220,0,0);stroke:none"/>
<rect width="143" height="15" x="2" y="148" style="fill:rgb(180,180,255);stroke:none"/>
<text x="4" y="161" fill="rgb(128,128,128)" font-family="sans-serif" font-size="13">protein_coding mRNA</text>
<rect width="1436" height="48" x="0" y="67" style="fill:rgb(238,238,238);stroke:none"/>
<rect width="1432" height="48" x="2" y="67" style="fill:rgb(220,220,255);stroke:none"/>
<rect width="11" height="32" x="0" y="69" style="fill:rgb(0,0,220);stroke:none"/>
<rect width="2" height="32" x="10" y="69" style="fill:rgb(220,0,0);stroke:none"/>
<rect width="12" height="32" x="12" y="69" style="fill:rgb(0,0,220);stroke:none"/>
<rect width="2" height="32" x="22" y="69" style="fill:rgb(220,0,0);stroke:none"/>
<rect width="2" height="32" x="24" y="69" style="fill:rgb(0,0,220);stroke:none"/>
<rect width="2" height="32" x="27" y="69" style="fill:rgb(0,0,220);stroke:none"/>
<rect width="10" height="32" x="30" y="69" style="fill:rgb(0,0,220);stroke:none"/>
<rect width="2" height="32" x="38" y="69" style="fill:rgb(220,0,0);stroke:none"/>
<rect width="4" height="32" x="40" y="69" style="fill:rgb(0,0,220);stroke:none"/>
<rect width="3" height="32" x="44" y="69" style="fill:rgb(220,0,0);stroke:none"/>
<rect width="5" height="32" x="47" y="69" style="fill:rgb(0,0,220);stroke:none"/>
<rect width="2" height="32" x="50" y="69" style="fill:rgb(220,0,0);stroke:none"/>
<rect width="2" height="32" x="53" y="69" style="fill:rgb(220,0,0);stroke:none"/>
<rect width="10" height="32" x="55" y="69" style="fill:rgb(0,0,220);stroke:none"/>
<rect width="6" height="32" x="66" y="69" style="fill:rgb(220,0,0);stroke:none"/>
<rect width="13" height="32" x="72" y="69" style="fill:rgb(0,0,220);stroke:none"/>
<rect width="6" height="32" x="85" y="69" style="fill:rgb(220,0,0);stroke:none"/>
<rect width="3" height="32" x="91" y="69" style="fill:rgb(0,0,220);stroke:none"/>
<rect width="21" height="32" x="94" y="69" style="fill:rgb(0,0,220);stroke:none"/>
<rect width="21" height="32" x="115" y="69" style="fill:rgb(220,0,0);stroke:none"/>
<rect width="2" height="32" x="135" y="69" style="fill:rgb(0,0,220);stroke:none"/>
<rect width="3" height="32" x="137" y="69" style="fill:rgb(220,0,0);stroke:none"/>
<rect width="4" height="32" x="141" y="69" style="fill:rgb(220,0,0);stroke:none"/>
<rect width="4" height="32" x="145" y="69" style="fill:rgb(0,0,220);stroke:none"/>
<rect width="18" height="32" x="149" y="69" style="fill:rgb(220,0,0);stroke:none"/>
<rect width="20" height="32" x="167" y="69" style="fill:rgb(0,0,220);stroke:none"/>
<rect width="2" height="32" x="186" y="69" style="fill:rgb(220,0,0);stroke:none"/>
<rect width="3" height="32" x="188" y="69" style="fill:rgb(0,0,220);stroke:none"/>
<rect width="17" height="32" x="192" y="69" style="fill:rgb(0,0,220);stroke:none"/>
<rect width="3" height="32" x="209" y="69" style="fill:rgb(220,0,0);stroke:none"/>
<rect width="3" height="32" x="212" y="69" style="fill:rgb(0,0,220);stroke:none"/>
<rect width="3" height="32" x="215" y="69" style="fill:rgb(220,0,0);stroke:none"/>
<rect width="5" height="32" x="218" y="69" style="fill:rgb(0,0,220);stroke:none"/>
<rect width="2" height="32" x="222" y="69" style="fill:rgb(220,0,0);stroke:none"/>
<rect width="55" height="32" x="225" y="69" style="fill:rgb(220,0,0);stroke:none"/>
<rect width="6" height="32" x="280" y="69" style="fill:rgb(0,0,220);stroke:none"/>
<rect width="62" height="32" x="286" y="69" style="fill:rgb(220,0,0);stroke:none"/>
<rect width="2" height="32" x="347" y="69" style="fill:rgb(0,0,220);stroke:none"/>
<rect width="41" height="32" x="349" y="69" style="fill:rgb(220,0,0);stroke:none"/>
<rect width="28" height="32" x="390" y="69" style="fill:rgb(0,0,220);stroke:none"/>
<rect width="3" height="32" x="418" y="69" style="fill:rgb(220,0,0);stroke:none"/>
<rect width="7" height="32" x="421" y="69" style="fill:rgb(0,0,220);stroke:none"/>
<rect width="2" height="32" x="426" y="69" style="fill:rgb(220,0,0);stroke:none"/>
<rect width="14" height="32" x="428" y="69" style="fill:rgb(0,0,220);stroke:none"/>
<rect width="11" height="32" x="442" y="69" style="fill:rgb(220,0,0);stroke:none"/>
<rect width="5" height="32" x="453" y="69" style="fill:rgb(0,0,220);stroke:none"/>
<rect width="20" height="32" x="458" y="69" style="fill:rgb(220,0,0);stroke:none"/>
<rect width="2" height="32" x="478" y="69" style="fill:rgb(0,0,220);stroke:none"/>
<rect width="32" height="32" x="480" y="69" style="fill:rgb(220,0,0);stroke:none"/>
<rect width="14" height="32" x="512" y="69" style="fill:rgb(0,0,220);stroke:none"/>
<rect width="27" height="32" x="526" y="69" style="fill:rgb(220,0,0);stroke:none"/>
<rect width="31" height="32" x="553" y="69" style="fill:rgb(0,0,220);stroke:none"/>
<rect width="11" height="32" x="584" y="69" style="fill:rgb(220,0,0);stroke:none"/>
<rect width="3" height="32" x="595" y="69" style="fill:rgb(0,0,220);stroke:none"/>
<rect width="5" height="32" x="598" y="69" style="fill:rgb(220,0,0);stroke:none"/>
<rect width="28" height="32" x="603" y="69" style="fill:rgb(0,0,220);stroke:none"/>
<rect width="4" height="32" x="631" y="69" style="fill:rgb(220,0,0);stroke:none"/>
<rect width="20" height="32" x="635" y="69" style="fill:rgb(0,0,220);stroke:none"/>
<rect width="29" height="32" x="655" y="69" style="fill:rgb(220,0,0);stroke:none"/>
<rect width="43" height="32" x="684" y="69" style="fill:rgb(0,0,220);stroke:none"/>
<rect width="10" height="32" x="727" y="69" style="fill:rgb(220,0,0);stroke:none"/>
<rect width="42" height="32" x="737" y="69" style="fill:rgb(0,0,220);stroke:none"/>
<rect width="130" height="32" x="779" y="69" style="fill:rgb(220,0,0);stroke:none"/>
<rect width="13" height="32" x="909" y="69" style="fill:rgb(0,0,220);stroke:none"/>
<rect width="2" height="32" x="921" y="69" style="fill:rgb(220,0,0);stroke:none"/>
<rect width="10" height="32" x="924" y="69" style="fill:rgb(220,0,0);stroke:none"/>
<rect width="2" height="32" x="932" y="69" style="fill:rgb(0,0,220);stroke:none"/>
<rect width="2" height="32" x="935" y="69" style="fill:rgb(0,0,220);stroke:none"/>
<rect width="9" height="32" x="937" y="69" style="fill:rgb(220,0,0);stroke:none"/>
<rect width="11" height="32" x="946" y="69" style="fill:rgb(0,0,220);stroke:none"/>
<rect width="14" height="32" x="957" y="69" style="fill:rgb(220,0,0);stroke:none"/>
<rect width="14" height="32" x="971" y="69" style="fill:rgb(0,0,220);stroke:none"/>
<rect width="2" height="32" x="984" y="69" style="fill:rgb(220,0,0);stroke:none"/>
<rect width="29" height="32" x="986" y="69" style="fill:rgb(0,0,220);stroke:none"/>
<rect width="2" height="32" x="1015" y="69" style="fill:rgb(220,0,0);stroke:none"/>
<rect width="7" height="32" x="1017" y="69" style="fill:rgb(0,0,220);stroke:none"/>
<rect width="13" height="32" x="1024" y="69" style="fill:rgb(220,0,0);stroke:none"/>
<rect width="2" height="32" x="1035" y="69" style="fill:rgb(0,0,220);stroke:none"/>
<rect width="10" height="32" x="1037" y="69" style="fill:rgb(220,0,0);stroke:none"/>
<rect width="2" height="32" x="1047" y="69" style="fill:rgb(0,0,220);stroke:none"/>
<rect width="12" height="32" x="1049" y="69" style="fill:rgb(220,0,0);stroke:none"/>
<rect width="2" height="32" x="1059" y="69" style="fill:rgb(0,0,220);stroke:none"/>
<rect width="9" height="32" x="1061" y="69" style="fill:rgb(0,0,220);stroke:none"/>
<rect width="33" height="32" x="1070" y="69" style="fill:rgb(220,0,0);stroke:none"/>
<rect width="29" height="32" x="1103" y="69" style="fill:rgb(0,0,220);stroke:none"/>
<rect width="2" height="32" x="1132" y="69" style="fill:rgb(220,0,0);stroke:none"/>
<rect width="5" height="32" x="1134" y="69" style="fill:rgb(0,0,220);stroke:none"/>
<rect width="2" height="32" x="1139" y="69" style="fill:rgb(220,0,0);stroke:none"/>
<rect width="28" height="32" x="1141" y="69" style="fill:rgb(0,0,220);stroke:none"/>
<rect width="20" height="32" x="1169" y="69" style="fill:rgb(220,0,0);stroke:none"/>
<rect width="2" height="32" x="1188" y="69" style="fill:rgb(0,0,220);stroke:none"/>
<rect width="41" height="32" x="1190" y="69" style="fill:rgb(220,0,0);stroke:none"/>
<rect width="22" height="32" x="1231" y="69" style="fill:rgb(0,0,220);stroke:none"/>
<rect width="5" height="32" x="1253" y="69" style="fill:rgb(220,0,0);stroke:none"/>
<rect width="16" height="32" x="1258" y="69" style="fill:rgb(0,0,220);stroke:none"/>
<rect width="7" height="32" x="1274" y="69" style="fill:rgb(220,0,0);stroke:none"/>
<rect width="2" height="32" x="1279" y="69" style="fill:rgb(0,0,220);stroke:none"/>
<rect width="3" height="32" x="1282" y="69" style="fill:rgb(0,0,220);stroke:none"/>
<rect width="7" height="32" x="1286" y="69" style="fill:rgb(220,0,0);stroke:none"/>
<rect width="8" height="32" x="1293" y="69" style="fill:rgb(0,0,220);stroke:none"/>
<rect width="7" height="32" x="1301" y="69" style="fill:rgb(220,0,0);stroke:none"/>
<rect width="2" height="32" x="1306" y="69" style="fill:rgb(0,0,220);stroke:none"/>
<rect width="6" height="32" x="1309" y="69" style="fill:rgb(0,0,220);stroke:none"/>
<rect width="2" height="32" x="1313" y="69" style="fill:rgb(220,0,0);stroke:none"/>
<rect width="6" height="32" x="1315" y="69" style="fill:rgb(0,0,220);stroke:none"/>
<rect width="2" height="32" x="1319" y="69" style="fill:rgb(220,0,0);stroke:none"/>
<rect width="8" height="32" x="1323" y="69" style="fill:rgb(220,0,0);stroke:none"/>
<rect width="16" height="32" x="1331" y="69" style="fill:rgb(0,0,220);stroke:none"/>
<rect width="16" height="32" x="1347" y="69" style="fill:rgb(220,0,0);stroke:none"/>
<rect width="17" height="32" x="1363" y="69" style="fill:rgb(0,0,220);stroke:none"/>
<rect width="56" height="32" x="1380" y="69" style="fill:rgb(220,0,0);stroke:none"/>
<rect width="95" height="15" x="2" y="100" style="fill:rgb(220,220,255);stroke:none"/>
<text x="4" y="113" fill="rgb(128,128,128)" font-family="sans-serif" font-size="13">AseI Fragment</text>
<rect width="1436" height="48" x="0" y="19" style="fill:rgb(238,238,238);stroke:none"/>
<rect width="1432" height="48" x="2" y="19" style="fill:rgb(180,180,255);stroke:none"/>
<rect width="222" height="32" x="231" y="21" style="fill:rgb(0,0,220);stroke:none"/>
<rect width="142" height="32" x="259" y="21" style="fill:rgb(220,0,0);stroke:none"/>
<rect width="2" height="32" x="420" y="21" style="fill:rgb(0,0,220);stroke:none"/>
<rect width="2" height="32" x="429" y="21" style="fill:rgb(220,0,0);stroke:none"/>
<rect width="49" height="32" x="454" y="21" style="fill:rgb(220,0,0);stroke:none"/>
<rect width="2" height="32" x="519" y="21" style="fill:rgb(0,0,220);stroke:none"/>
<rect width="359" height="32" x="543" y="21" style="fill:rgb(220,0,0);stroke:none"/>
<rect width="2" height="32" x="755" y="21" style="fill:rgb(0,0,220);stroke:none"/>
<rect width="5" height="32" x="924" y="21" style="fill:rgb(220,0,0);stroke:none"/>
<rect width="2" height="32" x="1153" y="21" style="fill:rgb(220,0,0);stroke:none"/>
<rect width="3" height="32" x="1202" y="21" style="fill:rgb(220,0,0);stroke:none"/>
<rect width="64" height="32" x="1276" y="21" style="fill:rgb(0,0,220);stroke:none"/>
<rect width="3" height="32" x="1406" y="21" style="fill:rgb(0,0,220);stroke:none"/>
<rect width="35" height="15" x="2" y="52" style="fill:rgb(180,180,255);stroke:none"/>
<text x="4" y="65" fill="rgb(128,128,128)" font-family="sans-serif" font-size="13">gene</text>
<text x="516" y="13" fill="rgb(0,0,0)" font-family="sans-serif" font-size="13">Homo sapiens GRCh37 chr22:23313157-23864948 (551.79kbp)</text>
</svg>
